<?xml version="1.0" encoding="UTF-8"?>
<svg xmlns="http://www.w3.org/2000/svg" xmlns:xlink="http://www.w3.org/1999/xlink" width="80px" height="80px" viewBox="0 0 80 80" version="1.1">
<g id="surface1">
<path style=" stroke:none;fill-rule:nonzero;fill:rgb(78.823529%,78.823529%,78.823529%);fill-opacity:1;" d="M 63.023438 40 C 63.023438 52.714844 52.714844 63.023438 40 63.023438 C 27.285156 63.023438 16.976562 52.714844 16.976562 40 C 16.976562 27.285156 27.285156 16.976562 40 16.976562 C 52.714844 16.976562 63.023438 27.285156 63.023438 40 Z M 63.023438 40 "/>
<path style=" stroke:none;fill-rule:nonzero;fill:rgb(13.72549%,12.156863%,12.54902%);fill-opacity:1;" d="M 40 63.824219 C 26.863281 63.824219 16.175781 53.136719 16.175781 40 C 16.175781 26.863281 26.863281 16.175781 40 16.175781 C 53.136719 16.175781 63.824219 26.863281 63.824219 40 C 63.824219 53.136719 53.136719 63.824219 40 63.824219 Z M 40 17.777344 C 27.742188 17.777344 17.777344 27.742188 17.777344 40 C 17.777344 52.257812 27.742188 62.222656 40 62.222656 C 52.257812 62.222656 62.222656 52.257812 62.222656 40 C 62.222656 27.742188 52.257812 17.777344 40 17.777344 Z M 40 17.777344 "/>
<path style=" stroke:none;fill-rule:nonzero;fill:rgb(97.647059%,97.647059%,97.647059%);fill-opacity:1;" d="M 32.703125 22.367188 C 32.382812 22.367188 32.078125 22.175781 31.96875 21.855469 C 31.808594 21.441406 32 20.976562 32.414062 20.816406 C 32.609375 20.734375 32.816406 20.65625 33.023438 20.59375 C 33.441406 20.449219 33.902344 20.65625 34.046875 21.070312 C 34.191406 21.488281 33.984375 21.953125 33.566406 22.097656 C 33.375 22.160156 33.199219 22.238281 33.007812 22.304688 C 32.894531 22.351562 32.800781 22.367188 32.703125 22.367188 Z M 32.703125 22.367188 "/>
<path style=" stroke:none;fill-rule:nonzero;fill:rgb(97.647059%,97.647059%,97.647059%);fill-opacity:1;" d="M 22.574219 50.238281 C 22.289062 50.238281 22.015625 50.097656 21.871094 49.824219 C 20.238281 46.832031 19.375 43.425781 19.375 40 C 19.375 36.382812 20.335938 32.816406 22.144531 29.695312 C 23.886719 26.671875 26.398438 24.113281 29.40625 22.320312 C 29.792969 22.097656 30.273438 22.207031 30.511719 22.59375 C 30.753906 22.976562 30.625 23.457031 30.238281 23.695312 C 24.542969 27.121094 20.992188 33.375 20.992188 40 C 20.992188 43.167969 21.792969 46.289062 23.296875 49.054688 C 23.503906 49.441406 23.359375 49.9375 22.976562 50.144531 C 22.832031 50.207031 22.703125 50.238281 22.574219 50.238281 Z M 22.574219 50.238281 "/>
<path style=" stroke:none;fill-rule:nonzero;fill:rgb(100%,100%,100%);fill-opacity:1;" d="M 45.664062 40 C 50.175781 33.664062 59.601562 20.398438 59.601562 20.398438 L 40 34.335938 C 33.664062 29.824219 20.398438 20.398438 20.398438 20.398438 L 34.335938 40 C 29.824219 46.335938 20.398438 59.601562 20.398438 59.601562 L 40 45.664062 C 46.335938 50.175781 59.601562 59.601562 59.601562 59.601562 Z M 45.664062 40 "/>
<path style=" stroke:none;fill-rule:nonzero;fill:rgb(13.72549%,12.156863%,12.54902%);fill-opacity:1;" d="M 59.601562 60.398438 C 59.441406 60.398438 59.28125 60.351562 59.136719 60.257812 L 40 46.640625 L 20.863281 60.257812 C 20.542969 60.480469 20.113281 60.449219 19.839844 60.175781 C 19.566406 59.902344 19.519531 59.472656 19.761719 59.152344 L 33.359375 40 L 19.742188 20.863281 C 19.519531 20.542969 19.550781 20.113281 19.824219 19.839844 C 20.097656 19.566406 20.527344 19.519531 20.847656 19.761719 L 40 33.359375 L 59.136719 19.742188 C 59.457031 19.519531 59.886719 19.550781 60.160156 19.824219 C 60.433594 20.097656 60.480469 20.527344 60.238281 20.847656 L 46.640625 40 L 60.257812 59.136719 C 60.480469 59.457031 60.449219 59.886719 60.175781 60.160156 C 60.015625 60.320312 59.808594 60.398438 59.601562 60.398438 Z M 40 44.863281 C 40.160156 44.863281 40.320312 44.910156 40.464844 45.007812 L 56.191406 56.207031 L 44.992188 40.480469 C 44.800781 40.207031 44.800781 39.824219 44.992188 39.550781 L 56.191406 23.824219 L 40.464844 35.023438 C 40.191406 35.214844 39.808594 35.214844 39.535156 35.023438 L 23.808594 23.824219 L 35.007812 39.550781 C 35.199219 39.824219 35.199219 40.207031 35.007812 40.480469 L 23.808594 56.207031 L 39.535156 45.007812 C 39.679688 44.910156 39.839844 44.863281 40 44.863281 Z M 40 44.863281 "/>
<path style=" stroke:none;fill-rule:nonzero;fill:rgb(44.313725%,80%,100%);fill-opacity:1;" d="M 34.335938 34.335938 L 40 40 L 40 0.800781 Z M 34.335938 34.335938 "/>
<path style=" stroke:none;fill-rule:nonzero;fill:rgb(13.72549%,12.156863%,12.54902%);fill-opacity:1;" d="M 40 40.800781 C 39.792969 40.800781 39.585938 40.71875 39.441406 40.558594 L 33.777344 34.894531 C 33.601562 34.71875 33.503906 34.449219 33.550781 34.191406 L 39.214844 0.671875 C 39.28125 0.257812 39.648438 -0.03125 40.0625 0 C 40.480469 0.03125 40.800781 0.382812 40.800781 0.800781 L 40.800781 40 C 40.800781 40.320312 40.609375 40.609375 40.304688 40.734375 C 40.207031 40.785156 40.097656 40.800781 40 40.800781 Z M 35.199219 34.0625 L 39.199219 38.0625 L 39.199219 10.351562 Z M 35.199219 34.0625 "/>
<path style=" stroke:none;fill-rule:nonzero;fill:rgb(97.647059%,71.372549%,18.823529%);fill-opacity:1;" d="M 40 40 L 45.664062 34.335938 L 40 0.800781 Z M 40 40 "/>
<path style=" stroke:none;fill-rule:nonzero;fill:rgb(13.72549%,12.156863%,12.54902%);fill-opacity:1;" d="M 42.734375 17.777344 C 42.351562 17.777344 42.015625 17.503906 41.953125 17.105469 L 41.824219 16.335938 C 41.742188 15.902344 42.046875 15.488281 42.480469 15.40625 C 42.910156 15.328125 43.328125 15.632812 43.40625 16.0625 L 43.535156 16.832031 C 43.617188 17.265625 43.3125 17.679688 42.878906 17.761719 C 42.816406 17.777344 42.769531 17.777344 42.734375 17.777344 Z M 42.734375 17.777344 "/>
<path style=" stroke:none;fill-rule:nonzero;fill:rgb(13.72549%,12.156863%,12.54902%);fill-opacity:1;" d="M 40 40.800781 C 39.902344 40.800781 39.792969 40.785156 39.695312 40.734375 C 39.390625 40.609375 39.199219 40.320312 39.199219 40 L 39.199219 0.800781 C 39.199219 0.382812 39.519531 0.03125 39.9375 0 C 40.351562 -0.03125 40.71875 0.257812 40.785156 0.671875 L 42.878906 13.105469 C 42.960938 13.535156 42.65625 13.953125 42.222656 14.03125 C 41.792969 14.113281 41.375 13.808594 41.296875 13.375 L 40.800781 10.351562 L 40.800781 38.0625 L 44.800781 34.0625 L 42.464844 20.191406 C 42.382812 19.761719 42.6875 19.34375 43.121094 19.265625 C 43.550781 19.183594 43.96875 19.488281 44.046875 19.921875 L 46.464844 34.207031 C 46.511719 34.464844 46.414062 34.71875 46.238281 34.910156 L 40.574219 40.574219 C 40.414062 40.71875 40.207031 40.800781 40 40.800781 Z M 40 40.800781 "/>
<path style=" stroke:none;fill-rule:nonzero;fill:rgb(97.647059%,71.372549%,18.823529%);fill-opacity:1;" d="M 40 40 L 34.335938 45.664062 L 40 79.199219 Z M 40 40 "/>
<path style=" stroke:none;fill-rule:nonzero;fill:rgb(13.72549%,12.156863%,12.54902%);fill-opacity:1;" d="M 36.511719 59.359375 C 36.128906 59.359375 35.792969 59.089844 35.726562 58.6875 L 35.632812 58.128906 C 35.550781 57.695312 35.855469 57.28125 36.289062 57.199219 C 36.71875 57.121094 37.136719 57.425781 37.214844 57.855469 L 37.3125 58.414062 C 37.390625 58.847656 37.089844 59.265625 36.65625 59.34375 C 36.609375 59.359375 36.558594 59.359375 36.511719 59.359375 Z M 36.511719 59.359375 "/>
<path style=" stroke:none;fill-rule:nonzero;fill:rgb(13.72549%,12.156863%,12.54902%);fill-opacity:1;" d="M 40 80 C 39.617188 80 39.28125 79.726562 39.214844 79.328125 L 36.304688 62.078125 C 36.222656 61.648438 36.527344 61.230469 36.960938 61.152344 C 37.390625 61.070312 37.808594 61.375 37.886719 61.808594 L 39.214844 69.632812 L 39.214844 41.9375 L 35.214844 45.9375 L 36.6875 54.640625 C 36.769531 55.070312 36.464844 55.488281 36.03125 55.566406 C 35.601562 55.648438 35.183594 55.34375 35.105469 54.910156 L 33.566406 45.792969 C 33.519531 45.535156 33.617188 45.28125 33.792969 45.089844 L 39.457031 39.425781 C 39.679688 39.199219 40.03125 39.121094 40.320312 39.246094 C 40.625 39.375 40.816406 39.664062 40.816406 39.984375 L 40.816406 79.183594 C 40.816406 79.601562 40.496094 79.953125 40.078125 79.984375 C 40.046875 80 40.015625 80 40 80 Z M 40 80 "/>
<path style=" stroke:none;fill-rule:nonzero;fill:rgb(44.313725%,80%,100%);fill-opacity:1;" d="M 40 40 L 45.664062 45.664062 L 40 79.199219 Z M 40 40 "/>
<path style=" stroke:none;fill-rule:nonzero;fill:rgb(13.72549%,12.156863%,12.54902%);fill-opacity:1;" d="M 40 80 C 39.984375 80 39.953125 80 39.9375 80 C 39.519531 79.96875 39.199219 79.617188 39.199219 79.199219 L 39.199219 40 C 39.199219 39.679688 39.390625 39.390625 39.695312 39.265625 C 40 39.136719 40.335938 39.214844 40.558594 39.441406 L 46.222656 45.105469 C 46.398438 45.28125 46.496094 45.550781 46.449219 45.808594 L 40.785156 79.34375 C 40.71875 79.726562 40.382812 80 40 80 Z M 40.800781 41.9375 L 40.800781 69.648438 L 44.800781 45.9375 Z M 40.800781 41.9375 "/>
<path style=" stroke:none;fill-rule:nonzero;fill:rgb(44.313725%,80%,100%);fill-opacity:1;" d="M 45.664062 34.335938 L 79.199219 40 L 40 40 Z M 45.664062 34.335938 "/>
<path style=" stroke:none;fill-rule:nonzero;fill:rgb(97.647059%,71.372549%,18.823529%);fill-opacity:1;" d="M 45.664062 45.664062 L 40 40 L 79.199219 40 Z M 45.664062 45.664062 "/>
<path style=" stroke:none;fill-rule:nonzero;fill:rgb(13.72549%,12.156863%,12.54902%);fill-opacity:1;" d="M 79.199219 40.800781 L 40 40.800781 C 39.679688 40.800781 39.390625 40.609375 39.265625 40.304688 C 39.136719 40 39.214844 39.664062 39.441406 39.441406 L 45.105469 33.777344 C 45.28125 33.601562 45.550781 33.503906 45.808594 33.550781 L 79.34375 39.214844 C 79.761719 39.28125 80.046875 39.664062 80.015625 40.0625 C 79.96875 40.480469 79.617188 40.800781 79.199219 40.800781 Z M 41.9375 39.199219 L 69.648438 39.199219 L 45.9375 35.199219 Z M 41.9375 39.199219 "/>
<path style=" stroke:none;fill-rule:nonzero;fill:rgb(13.72549%,12.156863%,12.54902%);fill-opacity:1;" d="M 45.664062 46.464844 C 45.457031 46.464844 45.246094 46.382812 45.105469 46.222656 L 39.441406 40.558594 C 39.214844 40.335938 39.136719 39.984375 39.265625 39.695312 C 39.390625 39.390625 39.679688 39.199219 40 39.199219 L 79.199219 39.199219 C 79.617188 39.199219 79.96875 39.519531 80 39.9375 C 80.03125 40.351562 79.742188 40.71875 79.328125 40.785156 L 63.070312 43.519531 C 62.640625 43.601562 62.222656 43.296875 62.144531 42.863281 C 62.0625 42.433594 62.367188 42.015625 62.800781 41.9375 L 69.632812 40.785156 L 41.9375 40.785156 L 45.9375 44.785156 L 54.734375 43.296875 C 55.167969 43.214844 55.585938 43.519531 55.664062 43.953125 C 55.742188 44.382812 55.441406 44.800781 55.007812 44.878906 L 45.792969 46.433594 C 45.742188 46.449219 45.695312 46.464844 45.664062 46.464844 Z M 45.664062 46.464844 "/>
<path style=" stroke:none;fill-rule:nonzero;fill:rgb(13.72549%,12.156863%,12.54902%);fill-opacity:1;" d="M 58.398438 44.304688 C 58.015625 44.304688 57.679688 44.03125 57.617188 43.632812 C 57.535156 43.199219 57.839844 42.785156 58.273438 42.703125 L 58.910156 42.59375 C 59.34375 42.511719 59.761719 42.816406 59.839844 43.246094 C 59.921875 43.679688 59.617188 44.097656 59.183594 44.175781 L 58.542969 44.289062 C 58.496094 44.304688 58.449219 44.304688 58.398438 44.304688 Z M 58.398438 44.304688 "/>
<path style=" stroke:none;fill-rule:nonzero;fill:rgb(97.647059%,71.372549%,18.823529%);fill-opacity:1;" d="M 34.335938 34.335938 L 40 40 L 0.800781 40 Z M 34.335938 34.335938 "/>
<path style=" stroke:none;fill-rule:nonzero;fill:rgb(13.72549%,12.156863%,12.54902%);fill-opacity:1;" d="M 40 40.800781 L 0.800781 40.800781 C 0.382812 40.800781 0.03125 40.480469 0 40.0625 C -0.03125 39.648438 0.257812 39.28125 0.671875 39.214844 L 15.761719 36.671875 C 16.191406 36.59375 16.609375 36.894531 16.6875 37.328125 C 16.769531 37.761719 16.464844 38.175781 16.03125 38.257812 L 10.367188 39.214844 L 38.078125 39.214844 L 34.078125 35.214844 L 22.878906 37.105469 C 22.449219 37.183594 22.03125 36.878906 21.953125 36.449219 C 21.871094 36.015625 22.175781 35.601562 22.609375 35.519531 L 34.207031 33.566406 C 34.464844 33.519531 34.71875 33.617188 34.910156 33.792969 L 40.574219 39.457031 C 40.800781 39.679688 40.878906 40.03125 40.753906 40.320312 C 40.609375 40.609375 40.320312 40.800781 40 40.800781 Z M 40 40.800781 "/>
<path style=" stroke:none;fill-rule:nonzero;fill:rgb(13.72549%,12.156863%,12.54902%);fill-opacity:1;" d="M 18.527344 37.808594 C 18.144531 37.808594 17.808594 37.535156 17.742188 37.136719 C 17.664062 36.703125 17.96875 36.289062 18.398438 36.207031 L 19.167969 36.078125 C 19.601562 36 20.015625 36.304688 20.097656 36.734375 C 20.175781 37.167969 19.871094 37.585938 19.441406 37.664062 L 18.671875 37.792969 C 18.625 37.808594 18.574219 37.808594 18.527344 37.808594 Z M 18.527344 37.808594 "/>
<path style=" stroke:none;fill-rule:nonzero;fill:rgb(44.313725%,80%,100%);fill-opacity:1;" d="M 40 40 L 34.335938 45.664062 L 0.800781 40 Z M 40 40 "/>
<path style=" stroke:none;fill-rule:nonzero;fill:rgb(13.72549%,12.156863%,12.54902%);fill-opacity:1;" d="M 34.335938 46.464844 C 34.289062 46.464844 34.238281 46.464844 34.207031 46.449219 L 0.671875 40.785156 C 0.257812 40.71875 -0.03125 40.335938 0 39.9375 C 0.03125 39.519531 0.382812 39.199219 0.800781 39.199219 L 40 39.199219 C 40.320312 39.199219 40.609375 39.390625 40.734375 39.695312 C 40.863281 40 40.785156 40.335938 40.558594 40.558594 L 34.894531 46.222656 C 34.753906 46.367188 34.558594 46.464844 34.335938 46.464844 Z M 10.351562 40.800781 L 34.0625 44.800781 L 38.0625 40.800781 Z M 10.351562 40.800781 "/>
</g>
</svg>
