<?xml version="1.0" encoding="UTF-8"?>
<svg xmlns="http://www.w3.org/2000/svg" xmlns:xlink="http://www.w3.org/1999/xlink" width="90px" height="90px" viewBox="0 0 90 90" version="1.1">
<g id="surface1">
<path style=" stroke:none;fill-rule:nonzero;fill:rgb(13.72549%,12.156863%,12.54902%);fill-opacity:1;" d="M 27.628906 19.261719 L 22.175781 19.261719 C 21.671875 19.261719 21.277344 18.863281 21.277344 18.359375 C 21.277344 17.855469 21.671875 17.460938 22.175781 17.460938 L 27.628906 17.460938 C 28.132812 17.460938 28.53125 17.855469 28.53125 18.359375 C 28.53125 18.863281 28.132812 19.261719 27.628906 19.261719 Z M 27.628906 19.261719 "/>
<path style=" stroke:none;fill-rule:nonzero;fill:rgb(13.72549%,12.156863%,12.54902%);fill-opacity:1;" d="M 19.207031 19.261719 L 18.898438 19.261719 C 18.394531 19.261719 18 18.863281 18 18.359375 C 18 17.855469 18.394531 17.460938 18.898438 17.460938 L 19.207031 17.460938 C 19.710938 17.460938 20.105469 17.855469 20.105469 18.359375 C 20.105469 18.863281 19.710938 19.261719 19.207031 19.261719 Z M 19.207031 19.261719 "/>
<path style=" stroke:none;fill-rule:nonzero;fill:rgb(44.313725%,80%,100%);fill-opacity:1;" d="M 27.628906 9.863281 C 25.289062 9.863281 23.382812 11.773438 23.382812 14.113281 C 23.382812 16.453125 25.289062 18.359375 27.628906 18.359375 L 44.800781 18.359375 C 47.140625 18.359375 49.050781 16.453125 49.050781 14.113281 C 49.050781 11.773438 47.160156 9.863281 44.800781 9.863281 L 44.710938 9.863281 C 44.710938 8.152344 43.324219 6.785156 41.632812 6.785156 C 39.925781 6.785156 38.554688 8.171875 38.554688 9.863281 C 38.554688 6.894531 36.160156 4.5 33.191406 4.5 C 30.222656 4.5 27.828125 6.894531 27.828125 9.863281 Z M 27.628906 9.863281 "/>
<path style=" stroke:none;fill-rule:nonzero;fill:rgb(13.72549%,12.156863%,12.54902%);fill-opacity:1;" d="M 44.800781 19.261719 L 27.628906 19.261719 C 24.785156 19.261719 22.480469 16.957031 22.480469 14.113281 C 22.480469 11.484375 24.445312 9.324219 26.980469 9 C 27.394531 5.957031 30.023438 3.601562 33.191406 3.601562 C 35.640625 3.601562 37.765625 5.023438 38.789062 7.074219 C 39.511719 6.335938 40.519531 5.886719 41.632812 5.886719 C 43.542969 5.886719 45.125 7.234375 45.523438 9.019531 C 48.023438 9.359375 49.949219 11.519531 49.949219 14.113281 C 49.949219 16.957031 47.644531 19.261719 44.800781 19.261719 Z M 27.628906 10.765625 C 25.777344 10.765625 24.28125 12.257812 24.28125 14.113281 C 24.28125 15.964844 25.777344 17.460938 27.628906 17.460938 L 44.800781 17.460938 C 46.65625 17.460938 48.148438 15.964844 48.148438 14.113281 C 48.148438 12.257812 46.65625 10.765625 44.800781 10.765625 L 44.710938 10.765625 C 44.207031 10.765625 43.8125 10.367188 43.8125 9.863281 C 43.8125 8.65625 42.839844 7.6875 41.632812 7.6875 C 40.429688 7.6875 39.457031 8.65625 39.457031 9.863281 C 39.457031 10.367188 39.058594 10.765625 38.554688 10.765625 C 38.050781 10.765625 37.65625 10.367188 37.65625 9.863281 C 37.65625 7.398438 35.65625 5.398438 33.191406 5.398438 C 30.726562 5.398438 28.726562 7.398438 28.726562 9.863281 C 28.726562 10.367188 28.332031 10.765625 27.828125 10.765625 Z M 27.628906 10.765625 "/>
<path style=" stroke:none;fill-rule:nonzero;fill:rgb(75.294118%,90.588235%,97.647059%);fill-opacity:1;" d="M 29.71875 14.058594 L 27.628906 14.058594 C 27.125 14.058594 26.730469 13.660156 26.730469 13.15625 C 26.730469 12.652344 27.125 12.257812 27.628906 12.257812 L 29.71875 12.257812 C 30.007812 12.257812 30.238281 12.023438 30.238281 11.734375 L 30.238281 9.917969 C 30.238281 8.371094 31.410156 7.054688 32.921875 6.910156 C 33.75 6.839844 34.578125 7.109375 35.191406 7.667969 C 35.800781 8.226562 36.160156 9.019531 36.160156 9.863281 C 36.160156 10.367188 35.765625 10.765625 35.261719 10.765625 C 34.757812 10.765625 34.363281 10.367188 34.363281 9.863281 C 34.363281 9.539062 34.21875 9.234375 33.984375 9 C 33.730469 8.785156 33.425781 8.675781 33.085938 8.710938 C 32.488281 8.765625 32.039062 9.304688 32.039062 9.917969 L 32.039062 11.753906 C 32.023438 13.03125 30.996094 14.058594 29.71875 14.058594 Z M 29.71875 14.058594 "/>
<path style=" stroke:none;fill-rule:nonzero;fill:rgb(3.137255%,69.803922%,42.352941%);fill-opacity:1;" d="M 22.949219 81.324219 L 0.898438 89.101562 L 0.898438 44.875 L 22.949219 37.097656 Z M 22.949219 81.324219 "/>
<path style=" stroke:none;fill-rule:nonzero;fill:rgb(3.137255%,69.803922%,42.352941%);fill-opacity:1;" d="M 22.949219 81.324219 L 45 89.101562 L 45 44.875 L 22.949219 37.097656 Z M 22.949219 81.324219 "/>
<path style=" stroke:none;fill-rule:nonzero;fill:rgb(3.137255%,69.803922%,42.352941%);fill-opacity:1;" d="M 67.050781 81.324219 L 45 89.101562 L 45 44.875 L 67.050781 37.097656 Z M 67.050781 81.324219 "/>
<path style=" stroke:none;fill-rule:nonzero;fill:rgb(1.176471%,55.686275%,32.156863%);fill-opacity:1;" d="M 36.289062 53.605469 L 36.289062 55.890625 C 36.289062 56.609375 36.882812 57.203125 37.601562 57.203125 L 45 57.203125 L 45 44.875 L 39.402344 42.894531 L 39.402344 46.746094 C 37.492188 48.421875 36.289062 50.886719 36.289062 53.605469 Z M 36.289062 53.605469 "/>
<path style=" stroke:none;fill-rule:nonzero;fill:rgb(1.176471%,55.686275%,32.156863%);fill-opacity:1;" d="M 45 57.203125 L 53.152344 57.203125 C 53.875 57.203125 54.46875 56.609375 54.46875 55.890625 L 54.46875 53.605469 C 54.46875 50.867188 53.261719 48.421875 51.355469 46.765625 L 51.355469 42.640625 L 45 44.875 Z M 45 57.203125 "/>
<path style=" stroke:none;fill-rule:nonzero;fill:rgb(3.137255%,69.803922%,42.352941%);fill-opacity:1;" d="M 67.050781 81.324219 L 89.101562 89.101562 L 89.101562 44.875 L 67.050781 37.097656 Z M 67.050781 81.324219 "/>
<path style=" stroke:none;fill-rule:nonzero;fill:rgb(13.72549%,12.156863%,12.54902%);fill-opacity:1;" d="M 0.898438 90 C 0.71875 90 0.539062 89.945312 0.378906 89.839844 C 0.144531 89.65625 0 89.386719 0 89.101562 L 0 44.875 C 0 44.496094 0.234375 44.152344 0.59375 44.027344 L 22.644531 36.253906 C 22.914062 36.160156 23.21875 36.199219 23.472656 36.359375 C 23.707031 36.523438 23.851562 36.808594 23.851562 37.097656 L 23.851562 81.324219 C 23.851562 81.703125 23.617188 82.042969 23.257812 82.171875 L 1.207031 89.945312 C 1.097656 89.980469 1.007812 90 0.898438 90 Z M 1.800781 45.523438 L 1.800781 87.839844 L 22.050781 80.695312 L 22.050781 38.375 Z M 22.949219 81.324219 Z M 22.949219 81.324219 "/>
<path style=" stroke:none;fill-rule:nonzero;fill:rgb(20.784314%,93.72549%,62.352941%);fill-opacity:1;" d="M 5.128906 49.5 C 4.625 49.5 4.230469 49.105469 4.230469 48.601562 L 4.230469 47.609375 C 4.230469 47.105469 4.625 46.710938 5.128906 46.710938 C 5.632812 46.710938 6.03125 47.105469 6.03125 47.609375 L 6.03125 48.601562 C 6.03125 49.105469 5.632812 49.5 5.128906 49.5 Z M 5.128906 49.5 "/>
<path style=" stroke:none;fill-rule:nonzero;fill:rgb(20.784314%,93.72549%,62.352941%);fill-opacity:1;" d="M 5.128906 84.601562 C 4.625 84.601562 4.230469 84.203125 4.230469 83.699219 L 4.230469 52.019531 C 4.230469 51.515625 4.625 51.121094 5.128906 51.121094 C 5.632812 51.121094 6.03125 51.515625 6.03125 52.019531 L 6.03125 83.699219 C 6.03125 84.203125 5.632812 84.601562 5.128906 84.601562 Z M 5.128906 84.601562 "/>
<path style=" stroke:none;fill-rule:nonzero;fill:rgb(13.72549%,12.156863%,12.54902%);fill-opacity:1;" d="M 45 90 C 44.890625 90 44.800781 89.980469 44.695312 89.945312 L 22.644531 82.171875 C 22.285156 82.042969 22.050781 81.703125 22.050781 81.324219 L 22.050781 37.097656 C 22.050781 36.808594 22.195312 36.539062 22.429688 36.359375 C 22.660156 36.199219 22.96875 36.144531 23.257812 36.253906 L 45.304688 44.027344 C 45.664062 44.152344 45.898438 44.496094 45.898438 44.875 L 45.898438 72.828125 C 45.898438 73.332031 45.503906 73.726562 45 73.726562 C 44.496094 73.726562 44.101562 73.332031 44.101562 72.828125 L 44.101562 45.523438 L 23.851562 38.375 L 23.851562 80.695312 L 44.101562 87.820312 L 44.101562 83.628906 C 44.101562 83.125 44.496094 82.726562 45 82.726562 C 45.503906 82.726562 45.898438 83.125 45.898438 83.628906 L 45.898438 89.101562 C 45.898438 89.386719 45.757812 89.65625 45.523438 89.839844 C 45.359375 89.945312 45.179688 90 45 90 Z M 45 90 "/>
<path style=" stroke:none;fill-rule:nonzero;fill:rgb(13.72549%,12.156863%,12.54902%);fill-opacity:1;" d="M 45 90 C 44.820312 90 44.640625 89.945312 44.476562 89.839844 C 44.242188 89.675781 44.101562 89.386719 44.101562 89.101562 L 44.101562 83.644531 C 44.101562 83.140625 44.496094 82.746094 45 82.746094 C 45.503906 82.746094 45.898438 83.140625 45.898438 83.644531 L 45.898438 87.839844 L 66.148438 80.695312 L 66.148438 38.375 L 45.898438 45.523438 L 45.898438 72.847656 C 45.898438 73.351562 45.503906 73.746094 45 73.746094 C 44.496094 73.746094 44.101562 73.351562 44.101562 72.847656 L 44.101562 44.875 C 44.101562 44.496094 44.335938 44.152344 44.695312 44.027344 L 66.742188 36.253906 C 67.015625 36.160156 67.320312 36.199219 67.570312 36.359375 C 67.804688 36.523438 67.949219 36.808594 67.949219 37.097656 L 67.949219 81.324219 C 67.949219 81.703125 67.714844 82.042969 67.355469 82.171875 L 45.304688 89.945312 C 45.199219 89.980469 45.109375 90 45 90 Z M 45 90 "/>
<path style=" stroke:none;fill-rule:nonzero;fill:rgb(13.72549%,12.156863%,12.54902%);fill-opacity:1;" d="M 89.101562 90 C 88.992188 90 88.902344 89.980469 88.792969 89.945312 L 66.742188 82.171875 C 66.382812 82.042969 66.148438 81.703125 66.148438 81.324219 L 66.148438 37.097656 C 66.148438 36.808594 66.292969 36.539062 66.527344 36.359375 C 66.761719 36.199219 67.066406 36.144531 67.355469 36.253906 L 89.40625 44.027344 C 89.765625 44.152344 90 44.496094 90 44.875 L 90 89.101562 C 90 89.386719 89.855469 89.65625 89.621094 89.839844 C 89.460938 89.945312 89.28125 90 89.101562 90 Z M 67.949219 80.675781 L 88.199219 87.820312 L 88.199219 45.523438 L 67.949219 38.375 Z M 67.949219 80.675781 "/>
<path style=" stroke:none;fill-rule:nonzero;fill:rgb(13.72549%,12.156863%,12.54902%);fill-opacity:1;" d="M 45 81.234375 C 44.496094 81.234375 44.101562 80.839844 44.101562 80.335938 L 44.101562 79.558594 C 44.101562 79.054688 44.496094 78.660156 45 78.660156 C 45.503906 78.660156 45.898438 79.054688 45.898438 79.558594 L 45.898438 80.335938 C 45.898438 80.839844 45.503906 81.234375 45 81.234375 Z M 45 81.234375 "/>
<path style=" stroke:none;fill-rule:nonzero;fill:rgb(97.647059%,71.372549%,18.823529%);fill-opacity:1;" d="M 76.933594 23.527344 L 43.003906 23.527344 L 43.003906 3.238281 C 43.003906 1.945312 44.046875 0.898438 45.34375 0.898438 L 76.914062 0.898438 C 78.265625 0.898438 78.839844 2.609375 77.777344 3.4375 L 66.367188 12.222656 L 77.777344 21.007812 C 78.859375 21.816406 78.28125 23.527344 76.933594 23.527344 Z M 76.933594 23.527344 "/>
<path style=" stroke:none;fill-rule:nonzero;fill:rgb(13.72549%,12.156863%,12.54902%);fill-opacity:1;" d="M 65.84375 1.800781 L 65.339844 1.800781 C 64.835938 1.800781 64.441406 1.402344 64.441406 0.898438 C 64.441406 0.394531 64.835938 0 65.339844 0 L 65.84375 0 C 66.347656 0 66.742188 0.394531 66.742188 0.898438 C 66.742188 1.402344 66.347656 1.800781 65.84375 1.800781 Z M 65.84375 1.800781 "/>
<path style=" stroke:none;fill-rule:nonzero;fill:rgb(13.72549%,12.156863%,12.54902%);fill-opacity:1;" d="M 76.933594 24.425781 L 43.003906 24.425781 C 42.496094 24.425781 42.101562 24.03125 42.101562 23.527344 L 42.101562 3.238281 C 42.101562 1.457031 43.558594 0 45.34375 0 L 61.8125 0 C 62.316406 0 62.710938 0.394531 62.710938 0.898438 C 62.710938 1.402344 62.316406 1.800781 61.8125 1.800781 L 45.359375 1.800781 C 44.566406 1.800781 43.921875 2.449219 43.921875 3.238281 L 43.921875 22.609375 L 76.949219 22.609375 C 77.273438 22.609375 77.398438 22.355469 77.4375 22.265625 C 77.472656 22.15625 77.527344 21.886719 77.257812 21.691406 L 65.84375 12.90625 C 65.628906 12.742188 65.484375 12.472656 65.484375 12.1875 C 65.484375 11.898438 65.609375 11.644531 65.84375 11.464844 L 77.257812 2.683594 C 77.527344 2.484375 77.472656 2.214844 77.4375 2.105469 C 77.398438 1.996094 77.273438 1.765625 76.949219 1.765625 L 69.121094 1.765625 C 68.617188 1.765625 68.21875 1.367188 68.21875 0.863281 C 68.21875 0.359375 68.617188 -0.0351562 69.121094 -0.0351562 L 76.933594 -0.0351562 C 77.941406 -0.0351562 78.804688 0.574219 79.128906 1.53125 C 79.453125 2.484375 79.144531 3.492188 78.355469 4.105469 L 67.859375 12.203125 L 78.335938 20.269531 C 79.128906 20.878906 79.433594 21.886719 79.109375 22.84375 C 78.785156 23.796875 77.941406 24.425781 76.933594 24.425781 Z M 76.933594 24.425781 "/>
<path style=" stroke:none;fill-rule:nonzero;fill:rgb(100%,92.941176%,80%);fill-opacity:1;" d="M 46.601562 5.941406 C 46.097656 5.941406 45.703125 5.542969 45.703125 5.039062 L 45.703125 4.5 C 45.703125 3.996094 46.097656 3.601562 46.601562 3.601562 C 47.105469 3.601562 47.503906 3.996094 47.503906 4.5 L 47.503906 5.039062 C 47.503906 5.542969 47.105469 5.941406 46.601562 5.941406 Z M 46.601562 5.941406 "/>
<path style=" stroke:none;fill-rule:nonzero;fill:rgb(100%,92.941176%,80%);fill-opacity:1;" d="M 46.601562 20.824219 C 46.097656 20.824219 45.703125 20.429688 45.703125 19.925781 L 45.703125 8.152344 C 45.703125 7.648438 46.097656 7.253906 46.601562 7.253906 C 47.105469 7.253906 47.503906 7.648438 47.503906 8.152344 L 47.503906 19.925781 C 47.503906 20.410156 47.105469 20.824219 46.601562 20.824219 Z M 46.601562 20.824219 "/>
<path style=" stroke:none;fill-rule:nonzero;fill:rgb(78.823529%,78.823529%,78.823529%);fill-opacity:1;" d="M 43.003906 23.527344 L 47.71875 23.527344 L 47.71875 48.636719 L 43.003906 48.636719 Z M 43.003906 23.527344 "/>
<path style=" stroke:none;fill-rule:nonzero;fill:rgb(13.72549%,12.156863%,12.54902%);fill-opacity:1;" d="M 47.734375 49.519531 L 43.019531 49.519531 C 42.515625 49.519531 42.121094 49.121094 42.121094 48.617188 L 42.121094 23.527344 C 42.121094 23.023438 42.515625 22.625 43.019531 22.625 L 47.734375 22.625 C 48.238281 22.625 48.636719 23.023438 48.636719 23.527344 L 48.636719 48.636719 C 48.636719 49.121094 48.222656 49.519531 47.734375 49.519531 Z M 43.902344 47.71875 L 46.816406 47.71875 L 46.816406 24.425781 L 43.902344 24.425781 Z M 43.902344 47.71875 "/>
<path style=" stroke:none;fill-rule:nonzero;fill:rgb(78.823529%,78.823529%,78.823529%);fill-opacity:1;" d="M 39.886719 53.605469 C 39.886719 50.578125 42.335938 48.113281 45.378906 48.113281 C 48.421875 48.113281 50.867188 50.5625 50.867188 53.605469 Z M 39.886719 53.605469 "/>
<path style=" stroke:none;fill-rule:nonzero;fill:rgb(13.72549%,12.156863%,12.54902%);fill-opacity:1;" d="M 50.851562 54.503906 L 39.886719 54.503906 C 39.382812 54.503906 38.988281 54.109375 38.988281 53.605469 C 38.988281 50.074219 41.851562 47.214844 45.378906 47.214844 C 48.90625 47.214844 51.769531 50.074219 51.769531 53.605469 C 51.75 54.109375 51.355469 54.503906 50.851562 54.503906 Z M 40.878906 52.703125 L 49.878906 52.703125 C 49.464844 50.597656 47.609375 49.015625 45.378906 49.015625 C 43.144531 49.015625 41.292969 50.617188 40.878906 52.703125 Z M 40.878906 52.703125 "/>
<path style=" stroke:none;fill-rule:nonzero;fill:rgb(13.72549%,12.156863%,12.54902%);fill-opacity:1;" d="M 66.382812 13.105469 L 60.679688 13.105469 C 60.175781 13.105469 59.777344 12.707031 59.777344 12.203125 C 59.777344 11.699219 60.175781 11.304688 60.679688 11.304688 L 66.382812 11.304688 C 66.886719 11.304688 67.285156 11.699219 67.285156 12.203125 C 67.285156 12.707031 66.886719 13.105469 66.382812 13.105469 Z M 66.382812 13.105469 "/>
<path style=" stroke:none;fill-rule:nonzero;fill:rgb(13.72549%,12.156863%,12.54902%);fill-opacity:1;" d="M 57.058594 13.105469 L 56.609375 13.105469 C 56.105469 13.105469 55.710938 12.707031 55.710938 12.203125 C 55.710938 11.699219 56.105469 11.304688 56.609375 11.304688 L 57.058594 11.304688 C 57.5625 11.304688 57.960938 11.699219 57.960938 12.203125 C 57.960938 12.707031 57.5625 13.105469 57.058594 13.105469 Z M 57.058594 13.105469 "/>
<path style=" stroke:none;fill-rule:nonzero;fill:rgb(44.313725%,80%,100%);fill-opacity:1;" d="M 11.84375 32.886719 C 9.503906 32.886719 7.597656 34.792969 7.597656 37.132812 C 7.597656 39.472656 9.503906 41.382812 11.84375 41.382812 L 29.015625 41.382812 C 31.355469 41.382812 33.265625 39.472656 33.265625 37.132812 C 33.265625 34.792969 31.355469 32.886719 29.015625 32.886719 L 28.925781 32.886719 C 28.925781 31.175781 27.539062 29.808594 25.847656 29.808594 C 24.136719 29.808594 22.769531 31.195312 22.769531 32.886719 C 22.769531 29.914062 20.375 27.523438 17.40625 27.523438 C 14.4375 27.523438 12.042969 29.914062 12.042969 32.886719 Z M 11.84375 32.886719 "/>
<path style=" stroke:none;fill-rule:nonzero;fill:rgb(13.72549%,12.156863%,12.54902%);fill-opacity:1;" d="M 29.015625 42.28125 L 11.84375 42.28125 C 9 42.28125 6.695312 39.976562 6.695312 37.132812 C 6.695312 34.507812 8.65625 32.347656 11.195312 32.023438 C 11.609375 28.980469 14.238281 26.621094 17.40625 26.621094 C 19.855469 26.621094 21.976562 28.042969 23.003906 30.097656 C 23.722656 29.359375 24.730469 28.90625 25.847656 28.90625 C 27.757812 28.90625 29.339844 30.257812 29.734375 32.039062 C 32.238281 32.382812 34.164062 34.542969 34.164062 37.132812 C 34.164062 39.960938 31.859375 42.28125 29.015625 42.28125 Z M 11.84375 33.785156 C 9.988281 33.785156 8.496094 35.28125 8.496094 37.132812 C 8.496094 38.988281 9.988281 40.480469 11.84375 40.480469 L 29.015625 40.480469 C 30.871094 40.480469 32.363281 38.988281 32.363281 37.132812 C 32.363281 35.28125 30.871094 33.785156 29.015625 33.785156 L 28.925781 33.785156 C 28.421875 33.785156 28.027344 33.390625 28.027344 32.886719 C 28.027344 31.679688 27.054688 30.707031 25.847656 30.707031 C 24.640625 30.707031 23.671875 31.679688 23.671875 32.886719 C 23.671875 33.390625 23.273438 33.785156 22.769531 33.785156 C 22.265625 33.785156 21.871094 33.390625 21.871094 32.886719 C 21.871094 30.421875 19.871094 28.421875 17.40625 28.421875 C 14.941406 28.421875 12.941406 30.421875 12.941406 32.886719 C 12.941406 33.390625 12.546875 33.785156 12.042969 33.785156 Z M 11.84375 33.785156 "/>
<path style=" stroke:none;fill-rule:nonzero;fill:rgb(75.294118%,90.588235%,97.647059%);fill-opacity:1;" d="M 13.933594 37.078125 L 11.84375 37.078125 C 11.339844 37.078125 10.945312 36.683594 10.945312 36.179688 C 10.945312 35.675781 11.339844 35.28125 11.84375 35.28125 L 13.933594 35.28125 C 14.21875 35.28125 14.453125 35.046875 14.453125 34.757812 L 14.453125 32.941406 C 14.453125 31.390625 15.625 30.078125 17.136719 29.933594 C 17.964844 29.863281 18.792969 30.132812 19.402344 30.691406 C 20.015625 31.246094 20.375 32.039062 20.375 32.886719 C 20.375 33.390625 19.980469 33.785156 19.476562 33.785156 C 18.972656 33.785156 18.574219 33.390625 18.574219 32.886719 C 18.574219 32.5625 18.433594 32.257812 18.199219 32.023438 C 17.945312 31.804688 17.640625 31.699219 17.296875 31.734375 C 16.703125 31.789062 16.253906 32.328125 16.253906 32.941406 L 16.253906 34.777344 C 16.234375 36.035156 15.210938 37.078125 13.933594 37.078125 Z M 13.933594 37.078125 "/>
</g>
</svg>
