<?xml version="1.0" encoding="UTF-8"?>
<svg xmlns="http://www.w3.org/2000/svg" xmlns:xlink="http://www.w3.org/1999/xlink" width="90px" height="90px" viewBox="0 0 90 90" version="1.1">
<g id="surface1">
<path style=" stroke:none;fill-rule:nonzero;fill:rgb(52.54902%,71.372549%,23.137255%);fill-opacity:1;" d="M 9.84375 18.28125 L 74.53125 18.28125 C 77.636719 18.28125 80.15625 20.800781 80.15625 23.90625 L 80.15625 66.09375 C 80.15625 69.199219 77.636719 71.71875 74.53125 71.71875 L 9.84375 71.71875 C 6.738281 71.71875 4.21875 69.199219 4.21875 66.09375 L 4.21875 23.90625 C 4.21875 20.800781 6.738281 18.28125 9.84375 18.28125 Z M 9.84375 18.28125 "/>
<path style=" stroke:none;fill-rule:nonzero;fill:rgb(87.45098%,87.45098%,86.666667%);fill-opacity:1;" d="M 74.53125 71.71875 L 9.84375 71.71875 C 6.738281 71.71875 4.21875 69.199219 4.21875 66.09375 L 4.21875 63.28125 L 80.15625 63.28125 L 80.15625 66.09375 C 80.15625 69.199219 77.636719 71.71875 74.53125 71.71875 Z M 74.53125 71.71875 "/>
<path style=" stroke:none;fill-rule:nonzero;fill:rgb(84.705882%,84.705882%,83.921569%);fill-opacity:1;" d="M 53.4375 85.78125 L 30.9375 85.78125 L 35.15625 71.71875 L 49.21875 71.71875 Z M 53.4375 85.78125 "/>
<path style=" stroke:none;fill-rule:nonzero;fill:rgb(87.45098%,87.45098%,86.666667%);fill-opacity:1;" d="M 26.71875 84.375 L 57.65625 84.375 L 57.65625 87.1875 L 26.71875 87.1875 Z M 26.71875 84.375 "/>
<path style=" stroke:none;fill-rule:nonzero;fill:rgb(80.784314%,80.784314%,80%);fill-opacity:1;" d="M 50.484375 75.9375 L 33.890625 75.9375 L 35.15625 71.71875 L 49.21875 71.71875 Z M 50.484375 75.9375 "/>
<path style=" stroke:none;fill-rule:nonzero;fill:rgb(77.647059%,86.27451%,22.745098%);fill-opacity:1;" d="M 16.875 45 L 25.3125 45 L 25.3125 57.65625 L 16.875 57.65625 Z M 16.875 45 "/>
<path style=" stroke:none;fill-rule:nonzero;fill:rgb(77.647059%,86.27451%,22.745098%);fill-opacity:1;" d="M 30.9375 35.15625 L 39.375 35.15625 L 39.375 57.65625 L 30.9375 57.65625 Z M 30.9375 35.15625 "/>
<path style=" stroke:none;fill-rule:nonzero;fill:rgb(77.647059%,86.27451%,22.745098%);fill-opacity:1;" d="M 45 25.3125 L 53.4375 25.3125 L 53.4375 57.65625 L 45 57.65625 Z M 45 25.3125 "/>
<path style=" stroke:none;fill-rule:nonzero;fill:rgb(77.647059%,86.27451%,22.745098%);fill-opacity:1;" d="M 67.5 57.65625 L 59.0625 57.65625 L 59.0625 12.65625 L 54.84375 12.65625 L 63.28125 4.21875 L 71.71875 12.65625 L 67.5 12.65625 Z M 67.5 57.65625 "/>
<path style=" stroke:none;fill-rule:nonzero;fill:rgb(18.039216%,30.980392%,47.058824%);fill-opacity:1;" d="M 80.980469 84.957031 L 67.882812 71.859375 L 71.859375 67.882812 L 84.957031 80.980469 C 85.484375 81.507812 85.78125 82.222656 85.78125 82.96875 C 85.78125 84.523438 84.523438 85.78125 82.96875 85.78125 C 82.222656 85.78125 81.507812 85.484375 80.980469 84.957031 Z M 80.980469 84.957031 "/>
<path style=" stroke:none;fill-rule:nonzero;fill:rgb(21.568627%,36.862745%,55.294118%);fill-opacity:1;" d="M 80.15625 64.6875 C 80.15625 73.230469 73.230469 80.15625 64.6875 80.15625 C 56.144531 80.15625 49.21875 73.230469 49.21875 64.6875 C 49.21875 56.144531 56.144531 49.21875 64.6875 49.21875 C 73.230469 49.21875 80.15625 56.144531 80.15625 64.6875 Z M 80.15625 64.6875 "/>
<path style=" stroke:none;fill-rule:nonzero;fill:rgb(98.823529%,67.058824%,11.764706%);fill-opacity:1;" d="M 74.53125 64.6875 C 74.53125 70.125 70.125 74.53125 64.6875 74.53125 C 59.25 74.53125 54.84375 70.125 54.84375 64.6875 C 54.84375 59.25 59.25 54.84375 64.6875 54.84375 C 70.125 54.84375 74.53125 59.25 74.53125 64.6875 Z M 74.53125 64.6875 "/>
<path style=" stroke:none;fill-rule:nonzero;fill:rgb(100%,70.588235%,19.215686%);fill-opacity:1;" d="M 71.71875 64.6875 C 71.71875 68.570312 68.570312 71.71875 64.6875 71.71875 C 60.804688 71.71875 57.65625 68.570312 57.65625 64.6875 C 57.65625 60.804688 60.804688 57.65625 64.6875 57.65625 C 68.570312 57.65625 71.71875 60.804688 71.71875 64.6875 Z M 71.71875 64.6875 "/>
<path style=" stroke:none;fill-rule:nonzero;fill:rgb(0%,0%,0%);fill-opacity:1;" d="M 5.625 29.53125 L 2.8125 29.53125 L 2.8125 23.90625 C 2.816406 20.023438 5.960938 16.878906 9.84375 16.875 L 57.65625 16.875 L 57.65625 14.0625 L 54.84375 14.0625 C 54.273438 14.0625 53.761719 13.71875 53.542969 13.195312 C 53.328125 12.667969 53.445312 12.0625 53.847656 11.660156 L 62.285156 3.222656 C 62.835938 2.675781 63.726562 2.675781 64.277344 3.222656 L 72.714844 11.660156 C 73.117188 12.0625 73.234375 12.667969 73.019531 13.195312 C 72.800781 13.71875 72.289062 14.0625 71.71875 14.0625 L 68.90625 14.0625 L 68.90625 16.875 L 74.53125 16.875 C 78.414062 16.878906 81.558594 20.023438 81.5625 23.90625 L 81.5625 52.03125 L 78.75 52.03125 L 78.75 23.90625 C 78.746094 21.578125 76.859375 19.691406 74.53125 19.6875 L 68.90625 19.6875 L 68.90625 45 L 66.09375 45 L 66.09375 12.65625 C 66.09375 11.878906 66.722656 11.25 67.5 11.25 L 68.324219 11.25 L 63.28125 6.207031 L 58.238281 11.25 L 59.0625 11.25 C 59.839844 11.25 60.46875 11.878906 60.46875 12.65625 L 60.46875 46.40625 L 57.65625 46.40625 L 57.65625 19.6875 L 9.84375 19.6875 C 7.515625 19.691406 5.628906 21.578125 5.625 23.90625 Z M 9.84375 73.125 L 33.265625 73.125 L 29.890625 84.375 L 26.71875 84.375 L 26.71875 87.1875 L 57.65625 87.1875 L 57.65625 84.375 L 54.484375 84.375 L 52.675781 78.34375 L 49.980469 79.15625 L 51.546875 84.375 L 32.828125 84.375 L 36.203125 73.125 L 46.40625 73.125 L 46.40625 70.3125 L 9.84375 70.3125 C 7.515625 70.308594 5.628906 68.421875 5.625 66.09375 L 5.625 64.6875 L 45 64.6875 L 45 61.875 L 5.625 61.875 L 5.625 32.34375 L 2.8125 32.34375 L 2.8125 66.09375 C 2.816406 69.976562 5.960938 73.121094 9.84375 73.125 Z M 52.03125 49.21875 L 52.03125 26.71875 L 46.40625 26.71875 L 46.40625 59.0625 L 9.84375 59.0625 L 9.84375 56.25 L 15.46875 56.25 L 15.46875 45 C 15.46875 44.222656 16.097656 43.59375 16.875 43.59375 L 25.3125 43.59375 C 26.089844 43.59375 26.71875 44.222656 26.71875 45 L 26.71875 56.25 L 29.53125 56.25 L 29.53125 35.15625 C 29.53125 34.378906 30.160156 33.75 30.9375 33.75 L 39.375 33.75 C 40.152344 33.75 40.78125 34.378906 40.78125 35.15625 L 40.78125 56.25 L 43.59375 56.25 L 43.59375 25.3125 C 43.59375 24.535156 44.222656 23.90625 45 23.90625 L 53.4375 23.90625 C 54.214844 23.90625 54.84375 24.535156 54.84375 25.3125 L 54.84375 49.21875 Z M 23.90625 46.40625 L 18.28125 46.40625 L 18.28125 56.25 L 23.90625 56.25 Z M 37.96875 36.5625 L 32.34375 36.5625 L 32.34375 56.25 L 37.96875 56.25 Z M 9.84375 22.5 L 9.84375 25.3125 L 12.65625 25.3125 L 12.65625 22.5 Z M 18.28125 22.5 L 15.46875 22.5 L 15.46875 25.3125 L 18.28125 25.3125 Z M 21.09375 22.5 L 21.09375 25.3125 L 23.90625 25.3125 L 23.90625 22.5 Z M 85.953125 79.984375 C 86.738281 80.777344 87.183594 81.851562 87.1875 82.96875 C 87.1875 84.089844 86.746094 85.160156 85.953125 85.953125 C 85.160156 86.746094 84.089844 87.1875 82.96875 87.1875 C 81.851562 87.179688 80.78125 86.734375 79.984375 85.953125 L 73.253906 79.21875 C 65.929688 83.542969 56.535156 81.742188 51.324219 75.019531 C 46.117188 68.292969 46.71875 58.746094 52.734375 52.734375 C 58.746094 46.71875 68.292969 46.117188 75.019531 51.324219 C 81.742188 56.535156 83.542969 65.929688 79.21875 73.253906 Z M 78.75 64.6875 C 78.75 56.921875 72.453125 50.625 64.6875 50.625 C 56.921875 50.625 50.625 56.921875 50.625 64.6875 C 50.625 72.453125 56.921875 78.75 64.6875 78.75 C 72.449219 78.742188 78.742188 72.449219 78.75 64.6875 Z M 83.960938 81.976562 L 77.566406 75.578125 C 76.960938 76.292969 76.292969 76.960938 75.578125 77.566406 L 81.976562 83.960938 C 82.328125 84.332031 82.851562 84.484375 83.347656 84.355469 C 83.839844 84.226562 84.226562 83.839844 84.355469 83.347656 C 84.480469 82.851562 84.332031 82.328125 83.960938 81.976562 Z M 75.9375 64.6875 C 75.9375 70.902344 70.902344 75.9375 64.6875 75.9375 C 58.472656 75.9375 53.4375 70.902344 53.4375 64.6875 C 53.4375 58.472656 58.472656 53.4375 64.6875 53.4375 C 70.898438 53.445312 75.929688 58.476562 75.9375 64.6875 Z M 73.125 64.6875 C 73.125 60.027344 69.347656 56.25 64.6875 56.25 C 60.027344 56.25 56.25 60.027344 56.25 64.6875 C 56.25 69.347656 60.027344 73.125 64.6875 73.125 C 69.34375 73.121094 73.121094 69.34375 73.125 64.6875 Z M 59.0625 64.6875 L 61.875 64.6875 C 61.875 63.136719 63.136719 61.875 64.6875 61.875 L 64.6875 59.0625 C 61.582031 59.066406 59.066406 61.582031 59.0625 64.6875 Z M 77.34375 11.25 L 80.15625 11.25 C 80.152344 6.59375 76.375 2.816406 71.71875 2.8125 L 71.71875 5.625 C 74.824219 5.628906 77.339844 8.144531 77.34375 11.25 Z M 77.34375 11.25 "/>
</g>
</svg>
